# xmcd
#
# Track frame offsets:
#	182
#	11065
#	34297
#	57290
#	84507
#	106067
#	124375
#	159860
#	190657
#	202417
#	218495
#	233437
#	245107
#	263167
#	274075
#
# Disc length: 3936
#
# Revision: 1
# Processed by: cddbd v1.5.1PL0 Copyright (c) Steve Scherf et al.
# Submitted via: CDex 1.50
# Normalized: r0:TDELIM( - )
#
DISCID=ce0f5e0f
DTITLE=Various Artist - Jazz Juice #3
DYEAR=1995
DGENRE=Jazz
TTITLE0=Jimmy Castor - Hey Leyroy, Your MMama's Callin You
TTITLE1=Cal Tjader - Shoshana
TTITLE2=Bobby Matos - Tema De Alma Latina
TTITLE3=Tito Puente - Take Five
TTITLE4=Poncho Sanchez - Yumbambe
TTITLE5=Jackie and Roy - Don't Be Blue
TTITLE6=Janet Lawson Quintet - So High
TTITLE7=Pharoah Sanders - You've Got To Have Freedom
TTITLE8=Quincy Jone and His Orchestra - Soul Bossa Nova
TTITLE9=Cybil Shepherd - Triste
TTITLE10=The Billy Mitchel Quintet - Bossa Nova Ova
TTITLE11=Willie Boba - Boogaloo In Room 802
TTITLE12=Judy Roberts - Never Was Love
TTITLE13=Jon Lucien - Who Will Buy
TTITLE14=Joe Bataan - Ordinary Guy
EXTD=YEAR: 1995
EXTT0=
EXTT1=
EXTT2=
EXTT3=
EXTT4=
EXTT5=
EXTT6=
EXTT7=
EXTT8=
EXTT9=
EXTT10=
EXTT11=
EXTT12=
EXTT13=
EXTT14=
PLAYORDER=
